<?xml version="1.0" encoding="UTF-8"?> <svg xmlns="http://www.w3.org/2000/svg" xmlns:xlink="http://www.w3.org/1999/xlink" version="1.1" id="Layer_1" x="0px" y="0px" viewBox="0 0 204 120" style="enable-background:new 0 0 204 120;" xml:space="preserve"> <style type="text/css"> .st0{fill:#FFFFFF;} </style> <g> <g> <path class="st0" d="M60.2,92.9c-6.5,0-12.8-1.8-18.4-5.4C34,82.6,28.5,74.9,26.5,65.8c-2-9-0.4-18.3,4.5-26.1 s12.6-13.3,21.7-15.3l1.7,7.3c-7.1,1.6-13.1,5.9-17,12s-5.1,13.4-3.5,20.5s5.9,13.1,12,17s13.4,5.1,20.5,3.5l1.7,7.3 C65.4,92.6,62.8,92.9,60.2,92.9z"></path> </g> <g> <path class="st0" d="M60.4,108.9c-4.9,0-9.8-0.7-14.6-2.2c-13-3.9-23.6-12.6-30.1-24.5s-7.8-25.6-3.9-38.6S24.4,20,36.3,13.5 l1.2,2.2c-23.4,12.7-32.2,42-19.6,65.4c6.1,11.3,16.3,19.6,28.6,23.3s25.3,2.4,36.7-3.7l1.2,2.2C76.9,106.9,68.7,108.9,60.4,108.9 z"></path> </g> <g> <path class="st0" d="M61.3,101.5c-9.7,0-19.1-3.3-26.9-9.4c-9.1-7.2-14.8-17.5-16.1-29c-1.3-11.5,1.9-22.8,9.1-31.9 s17.5-14.8,29-16.1l0.4,3.7C46.4,20,37,25.2,30.4,33.5s-9.5,18.6-8.3,29.1s6.4,19.9,14.7,26.5s18.6,9.5,29.1,8.3l0.4,3.7 C64.7,101.4,63,101.5,61.3,101.5z"></path> </g> <g> <path class="st0" d="M45.5,114.7c-15.1-3.4-28-12.4-36.3-25.5S-1.9,60.5,1.5,45.4c7-31.2,38-51,69.3-44l-0.3,1.2 C39.9-4.2,9.5,15.1,2.7,45.7c-3.3,14.8-0.6,30,7.5,42.8s20.8,21.7,35.6,25L45.5,114.7z"></path> </g> <g> <path class="st0" d="M109.8,114h3.5v1H111v1.2h1.7v1H111v1.5h2.4v1h-3.6V114z"></path> <path class="st0" d="M117.8,119.6l-1.3-3.4l-1.3,3.4H114l2.2-5.7h0.4l2.3,5.7H117.8z"></path> <path class="st0" d="M123.2,119.6l-1.3-3.4l-1.3,3.4h-1.2l2.2-5.7h0.4l2.3,5.7H123.2z"></path> <path class="st0" d="M125.4,114h1.1v2.2h2.1V114h1.1v5.7h-1.1v-2.5h-2.1v2.5h-1.1C125.4,119.7,125.4,114,125.4,114z"></path> <path class="st0" d="M135.6,114v5.7h-0.4l-2.8-3.4v3.3h-1.1v-5.7h0.4l2.8,3.4V114H135.6z"></path> <path class="st0" d="M137.1,114h1.1v5.7h-1.1V114z"></path> <path class="st0" d="M142.9,119.6l-2.1-2.9v2.9h-1.1V114h1.1v2.6l1.9-2.6h1.3l-1.9,2.7l2.1,3L142.9,119.6L142.9,119.6z"></path> <path class="st0" d="M145.2,114h1.1v2.2h2.1V114h1.1v5.7h-1.1v-2.5h-2.1v2.5h-1.1V114z"></path> <path class="st0" d="M153.6,114h1.9c1.2,0,2,0.7,2,1.8c0,1.1-0.8,1.8-2,1.8h-0.8v2h-1.1L153.6,114L153.6,114z M155.5,116.6 c0.5,0,0.8-0.3,0.8-0.8s-0.3-0.8-0.8-0.8h-0.8v1.7L155.5,116.6L155.5,116.6z"></path> <path class="st0" d="M161,118.9h-2l-0.3,0.8h-1.2l2.3-5.7h0.4l2.2,5.7h-1.2L161,118.9z M160,116l-0.7,1.9h1.3L160,116z"></path> <path class="st0" d="M167.8,119.3v0.4h-4.7v-0.4l2.1-5.4h0.4L167.8,119.3z M164.5,118.6h1.8l-0.9-2.5L164.5,118.6z"></path> <path class="st0" d="M168.9,114h1.1v5.7h-1.1V114z"></path> <path class="st0" d="M171.2,116.8c0-1.8,1.1-2.9,2.6-2.9s2.6,1.2,2.6,2.9c0,1.8-1.1,2.9-2.6,2.9 C172.3,119.7,171.2,118.6,171.2,116.8z M175.3,116.8c0-1.2-0.6-1.9-1.5-1.9s-1.5,0.7-1.5,1.9c0,1.2,0.6,1.9,1.5,1.9 C174.7,118.7,175.3,118,175.3,116.8z"></path> <path class="st0" d="M180.9,119.5v0.5h-1.1v-0.5c-1.4-0.1-2.4-1.1-2.4-2.7c0-1.5,1-2.6,2.4-2.7v-0.5h1.1v0.5 c1.4,0.1,2.4,1.1,2.4,2.7C183.3,118.3,182.3,119.4,180.9,119.5z M179.8,118.5v-3.4c-0.8,0.1-1.3,0.7-1.3,1.7 C178.5,117.8,179,118.4,179.8,118.5z M182.2,116.8c0-1-0.5-1.6-1.3-1.7v3.4C181.7,118.4,182.2,117.8,182.2,116.8z"></path> <path class="st0" d="M188.6,118.6h0.8v1h-2.1v-1c0.7-0.4,1.1-1.1,1.1-2c0-1.1-0.6-1.8-1.5-1.8s-1.5,0.7-1.5,1.8 c0,0.9,0.4,1.5,1.1,2v1h-2.1v-1h0.8c-0.6-0.6-0.8-1.2-0.8-2c0-1.6,1.1-2.8,2.6-2.8s2.6,1.1,2.6,2.8 C189.5,117.4,189.2,118,188.6,118.6z"></path> <path class="st0" d="M195.1,114v5.7h-0.4l-2.8-3.4v3.3h-1.1v-5.7h0.4l2.8,3.4V114H195.1z"></path> <path class="st0" d="M196.5,114h1.1v5.7h-1.1V114z"></path> <path class="st0" d="M202.1,118.9h-2l-0.3,0.8h-1.2l2.3-5.7h0.4l2.2,5.7h-1.2L202.1,118.9z M201.1,116l-0.7,1.9h1.3L201.1,116z"></path> </g> <g> <g> <path class="st0" d="M55.2,54.9v14.3h-3.6V55.4c0-1.4-0.9-2.3-2.2-2.3s-2.3,0.9-2.3,2.3v8.7h-3.6v-9.5c0-1-0.3-1.5-1.1-1.5h-0.7 v-3c0.5-0.2,1.2-0.3,1.9-0.3c1.4,0,2.4,0.5,2.9,1.4c1-0.9,2.3-1.5,3.9-1.5C53.3,49.7,55.2,51.8,55.2,54.9z"></path> </g> </g> <g> <g> <path class="st0" d="M172.1,60.8v5.7c0,1.3,0.7,1.8,2.2,1.8c0.4,0,0.9,0,1.6-0.1v3c-0.7,0.2-1.4,0.3-2.3,0.3c-3.2,0-5-1.7-5-4.7 v-6.1H165v-3.3h11.3v3.3L172.1,60.8L172.1,60.8z"></path> <path class="st0" d="M190.7,62.3v14h-3.6V62.7c0-1.4-0.9-2.3-2.2-2.3s-2.3,0.9-2.3,2.3v8.5h-3.5v-9.4c0-1-0.3-1.4-1.1-1.4h-0.7 v-3c0.5-0.2,1.2-0.3,1.8-0.3c1.4,0,2.3,0.4,2.8,1.4c0.9-0.9,2.3-1.4,3.8-1.4C188.8,57.2,190.7,59.2,190.7,62.3z"></path> <path class="st0" d="M199.5,73.8c0-1.3-0.5-2-1.8-2.5l-1-0.4c-3.2-1.2-4.6-3.2-4.6-6.6c0-4.5,2.5-7.2,6.4-7.2 c2.6,0,4.4,1.2,5.5,3.6l-2.7,1.6c-0.7-1.3-1.6-1.9-2.7-1.9c-1.7,0-2.8,1.3-2.8,3.8c0,2.3,0.9,3.2,3,3.9l1.3,0.4 c2.1,0.8,3.1,2.2,3.1,4.4c0,1.1-0.3,2.1-0.7,3.3H199C199.3,75.3,199.5,74.5,199.5,73.8z"></path> </g> </g> <g> <g> <path class="st0" d="M80.1,69.9v2.6h-5.5v-2.6c-6.9-0.4-11.7-5.5-11.7-13.3c0-7.6,4.8-12.7,11.7-13.1V41h5.5v2.6 c7,0.4,11.8,5.4,11.8,13.1S87.1,69.5,80.1,69.9z M74.7,65.1V48.4c-3.9,0.3-6.4,3.3-6.4,8.3C68.2,61.9,70.8,64.8,74.7,65.1z M86.5,56.7c0-5.1-2.6-8-6.4-8.3v16.7C84,64.8,86.5,61.9,86.5,56.7z"></path> <path class="st0" d="M121.1,60.6c0,6.7-3.1,10.7-8.4,10.7c-2.5,0-4.3-0.9-5.6-2.7c-1.3,1.8-3.1,2.7-5.6,2.7 c-5.3,0-8.4-3.9-8.4-10.7c0-5.9,2.5-9.7,7.2-11.1l1.8,4.5c-2.5,1.3-3.6,3.2-3.6,6.6c0,3.7,1.2,5.7,3.3,5.7c1.7,0,2.7-1.3,2.7-3.5 v-6.3h5.2v6.3c0,2.1,0.9,3.5,2.7,3.5c2.1,0,3.3-2,3.3-5.6c0-3.5-1.1-5.3-3.6-6.6l1.8-4.6C118.6,50.8,121.1,54.6,121.1,60.6z"></path> <path class="st0" d="M141.1,49.8l-9.3,21.3h-2.2l-9.3-21.3h5.8l4.6,11.7l4.5-11.7H141.1z"></path> <path class="st0" d="M160.8,57v21.3h-5.4V57.7c0-2.1-1.4-3.5-3.3-3.5c-2,0-3.4,1.4-3.4,3.5v13h-5.6V56.5c0-1.5-0.5-2.2-1.7-2.2 h-1v-4.5c0.8-0.3,1.8-0.4,2.8-0.4c2.1,0,3.5,0.7,4.3,2.2c1.4-1.4,3.4-2.2,5.8-2.2C157.9,49.3,160.8,52.3,160.8,57z M153.5,46.6 h-4l1-8.9h6.5v0.9L153.5,46.6z"></path> </g> </g> <g> <path class="st0" d="M91.9,84.1h13.6v4h-9.1v4.7h6.8v3.8h-6.8v5.8h9.5v4h-14V84.1z"></path> <path class="st0" d="M123.2,102.7v3.6c-0.6,0.2-1.2,0.3-2,0.3c-2.1,0-3.3-1-4-3.4l-2.6-8.2l-4.3,11.3h-4.6l6.9-16.8l-0.8-2.5 c-0.5-1.7-1.2-2.4-2.8-2.4c-0.4,0-0.9,0-1.5,0.1V81c0.6-0.2,1.4-0.3,2.4-0.3c3.2,0,4.8,1.9,5.8,5l5.2,15.7 c0.3,0.9,0.8,1.4,1.6,1.4L123.2,102.7L123.2,102.7z"></path> <path class="st0" d="M137.2,102.7v3.6c-0.6,0.2-1.2,0.3-2,0.3c-2.1,0-3.3-1-4-3.4l-2.6-8.2l-4.3,11.3h-4.6l6.9-16.8l-0.8-2.5 c-0.5-1.7-1.2-2.4-2.8-2.4c-0.4,0-0.9,0-1.5,0.1V81c0.6-0.2,1.4-0.3,2.4-0.3c3.2,0,4.8,1.9,5.8,5l5.2,15.7 c0.3,0.9,0.8,1.4,1.6,1.4L137.2,102.7L137.2,102.7z"></path> <path class="st0" d="M154.6,102.7v3.6c-0.7,0.2-1.5,0.3-2.3,0.3c-1.9,0-3.1-0.8-3.7-2.4c-1,1.6-2.6,2.5-4.7,2.5 c-4.2,0-6.9-3.5-6.9-8.7c0-5.3,2.8-8.7,6.9-8.7c2.1,0,3.7,0.9,4.7,2.4l0.1-2.1h4.1c-0.2,3.4-0.3,6.1-0.3,7.9v3.5 c0,1.2,0.4,1.8,1.3,1.8C154,102.8,154.2,102.8,154.6,102.7z M148.1,98c0-3.3-1.5-4.8-3.4-4.8c-2,0-3.3,1.7-3.3,4.8 c0,3.1,1.3,4.8,3.3,4.8C146.6,102.8,148.1,101.4,148.1,98z M145.8,87.1h-3.2l0.8-7.1h5.2v0.7L145.8,87.1z"></path> <path class="st0" d="M170.7,98.1c0,5.1-3.3,8.7-7.9,8.7c-4.7,0-7.9-3.4-7.9-8.6c0-4.7,2.7-7.9,6.7-8.4l-6.3-7.4V81h14.8v3.9h-7.4 l4.9,5.8C169.8,93.2,170.7,95.3,170.7,98.1z M166.2,98.1c0-2.9-1.3-4.7-3.5-4.7c-2.1,0-3.4,1.7-3.4,4.7s1.3,4.6,3.4,4.6 C164.8,102.7,166.2,101.1,166.2,98.1z"></path> <path class="st0" d="M189.2,102.7v3.6c-0.7,0.2-1.5,0.3-2.3,0.3c-1.9,0-3.1-0.8-3.7-2.4c-1,1.6-2.6,2.5-4.7,2.5 c-4.2,0-6.9-3.5-6.9-8.7c0-5.3,2.8-8.7,6.9-8.7c2.1,0,3.7,0.9,4.7,2.4l0.1-2.1h4.1c-0.2,3.4-0.3,6.1-0.3,7.9v3.5 c0,1.2,0.4,1.8,1.3,1.8C188.7,102.8,188.8,102.8,189.2,102.7z M182.8,98c0-3.3-1.5-4.8-3.4-4.8c-2,0-3.3,1.7-3.3,4.8 c0,3.1,1.3,4.8,3.3,4.8C181.3,102.8,182.8,101.4,182.8,98z"></path> <path class="st0" d="M198.5,109.4c0-1.6-0.6-2.4-2.2-3l-1.2-0.4c-3.9-1.4-5.5-3.8-5.5-8c0-5.4,3-8.7,7.7-8.7 c3.1,0,5.4,1.5,6.6,4.4l-3.2,1.9c-0.9-1.6-1.9-2.3-3.3-2.3c-2.1,0-3.3,1.6-3.3,4.6c0,2.7,1.1,3.9,3.6,4.7l1.5,0.5 c2.6,0.9,3.8,2.7,3.8,5.4c0,1.3-0.3,2.6-0.8,3.9H198C198.2,111.3,198.5,110.2,198.5,109.4z"></path> </g> </g> </svg> 